Coordinates
version=1
nRows=22
nColumns=34
inDegrees=no

Units are S.I. units (second, meters, Newtons, ...)
If the header above contains a line with 'inDegrees', this indicates whether rotational values are in degrees (yes) or radians (no).

endheader
time	pelvis_tilt	pelvis_list	pelvis_rotation	pelvis_tx	pelvis_ty	pelvis_tz	hip_flexion_r	hip_adduction_r	hip_rotation_r	knee_angle_r	ankle_angle_r	subtalar_angle_r	mtp_angle_r	hip_flexion_l	hip_adduction_l	hip_rotation_l	knee_angle_l	ankle_angle_l	subtalar_angle_l	mtp_angle_l	lumbar_extension	lumbar_bending	lumbar_rotation	arm_flex_r	arm_add_r	arm_rot_r	elbow_flex_r	pro_sup_r	arm_flex_l	arm_add_l	arm_rot_l	elbow_flex_l	pro_sup_l
0	0.161742	-0.11516	0.17865	0.117242	0.939428	-0.178149	0.178114	0.165212	-0.178496	0.0365006	-0.231854	-0.140169	0.00820277	-0.436973	-0.187652	-0.310565	0.276512	0.348121	0.185189	0.0174057	-0.211718	0.105861	-0.137414	-0.00362316	-0.221982	-0.0425862	0.56099	1.47807	0.464542	-0.209697	0.0448804	0.909582	1.82155
0.01	0.155702	-0.127544	0.181435	0.13008	0.942147	-0.176798	0.184275	0.179873	-0.172192	0.0543904	-0.232715	-0.169379	0.00820585	-0.409017	-0.215251	-0.296476	0.339717	0.308249	0.157414	0.017471	-0.203611	0.117549	-0.134316	-0.00329896	-0.218541	-0.0458573	0.549658	1.47299	0.452061	-0.206501	0.0495643	0.911172	1.82566
0.02	0.148703	-0.139323	0.183233	0.142692	0.944403	-0.175426	0.191438	0.193405	-0.167795	0.0727581	-0.230034	-0.193489	0.00820892	-0.377103	-0.241184	-0.28043	0.404374	0.264125	0.129034	0.0175364	-0.194862	0.128335	-0.13013	-0.00263355	-0.215565	-0.0479602	0.538898	1.46806	0.439672	-0.203349	0.0552104	0.910356	1.83109
0.03	0.140788	-0.150506	0.184056	0.15507	0.946238	-0.174033	0.199511	0.205837	-0.165259	0.0915049	-0.223872	-0.21254	0.00821198	-0.341296	-0.265454	-0.262462	0.470434	0.215924	0.100141	0.0176017	-0.185515	0.138239	-0.124865	-0.00162481	-0.213067	-0.0488781	0.528727	1.46334	0.427376	-0.200239	0.0618103	0.907136	1.83782
0.04	0.13206	-0.161109	0.18394	0.167208	0.947701	-0.172621	0.208253	0.217237	-0.164449	0.110375	-0.214411	-0.226659	0.00821505	-0.301781	-0.28806	-0.242676	0.537741	0.16424	0.071017	0.017667	-0.175679	0.1473	-0.11854	-0.000269492	-0.211082	-0.048566	0.519196	1.45895	0.415174	-0.197172	0.0693429	0.901508	1.84577
0.05	0.122699	-0.171141	0.182947	0.179106	0.948845	-0.171196	0.217272	0.227707	-0.165152	0.12896	-0.201983	-0.236078	0.00821811	-0.258905	-0.308973	-0.221255	0.605978	0.110278	0.0421679	0.0177324	-0.165541	0.155575	-0.111196	0.00143641	-0.209662	-0.0469447	0.510388	1.45515	0.403074	-0.194148	0.0777697	0.893477	1.85476
0.06	0.112954	-0.180594	0.181175	0.190765	0.949732	-0.16977	0.226058	0.237357	-0.167102	0.146762	-0.187053	-0.241124	0.00822117	-0.213197	-0.328127	-0.19845	0.674645	0.0559165	0.0142856	0.0177978	-0.155354	0.163121	-0.102906	0.00350085	-0.208873	-0.0439024	0.502409	1.45231	0.391095	-0.191175	0.0870293	0.883055	1.86451
0.07	0.103127	-0.189437	0.178762	0.202194	0.950427	-0.168361	0.234041	0.246283	-0.17003	0.163271	-0.170178	-0.242185	0.00822423	-0.165337	-0.34541	-0.174557	0.743076	0.00358958	-0.0118698	0.0178632	-0.145423	0.169983	-0.0937849	0.00594208	-0.208777	-0.0392983	0.495355	1.45088	0.379256	-0.188261	0.0970298	0.870268	1.87463
0.08	0.0935452	-0.197616	0.175883	0.213402	0.950995	-0.166991	0.240662	0.254547	-0.173683	0.178042	-0.151949	-0.239701	0.00822729	-0.116109	-0.36067	-0.149896	0.810482	-0.0440049	-0.0356298	0.0179286	-0.136065	0.176183	-0.0839914	0.00879489	-0.209417	-0.0329721	0.489284	1.4513	0.367578	-0.185417	0.107641	0.855152	1.88466
0.09	0.084524	-0.205051	0.172737	0.224404	0.951501	-0.165684	0.24543	0.262174	-0.17783	0.190748	-0.132941	-0.234142	0.00823034	-0.0663242	-0.373732	-0.124794	0.876024	-0.0843181	-0.0565764	0.017994	-0.127577	0.181712	-0.073723	0.0121127	-0.210804	-0.0247579	0.484193	1.45393	0.356068	-0.18265	0.118686	0.837745	1.89416
0.1	0.0763345	-0.211646	0.16952	0.235215	0.952004	-0.164461	0.24797	0.269154	-0.182252	0.201195	-0.113671	-0.226013	0.0082334	-0.0167551	-0.384419	-0.099593	0.938861	-0.115387	-0.0746534	0.0180595	-0.120202	0.18653	-0.0631969	0.015964	-0.212911	-0.0145048	0.480008	1.45893	0.344711	-0.179963	0.129939	0.818087	1.90269
0.11	0.0691736	-0.217295	0.166405	0.245855	0.952552	-0.163341	0.248028	0.275452	-0.186715	0.20931	-0.0945657	-0.215838	0.00823646	0.0319099	-0.392577	-0.0746532	0.998207	-0.136183	-0.0901978	0.018125	-0.114103	0.190571	-0.0526272	0.0204226	-0.215666	-0.00210404	0.476595	1.46616	0.333463	-0.177347	0.141126	0.796214	1.9099
0.12	0.0631466	-0.22189	0.163512	0.256342	0.953189	-0.162334	0.245476	0.281025	-0.19095	0.215113	-0.0759542	-0.204157	0.00823951	0.079086	-0.398095	-0.0503704	1.05335	-0.146789	-0.103879	0.0181905	-0.109365	0.193744	-0.042199	0.0255561	-0.21896	0.0124798	0.473783	1.47523	0.322245	-0.174788	0.151925	0.772172	1.91555
0.13	0.058271	-0.225334	0.160895	0.2667	0.953948	-0.161445	0.24029	0.285822	-0.19465	0.218682	-0.0580609	-0.191492	0.00824257	0.124298	-0.400915	-0.0271753	1.10366	-0.148345	-0.116563	0.0182561	-0.10599	0.195938	-0.0320474	0.0314117	-0.222647	0.0291727	0.471396	1.48548	0.310951	-0.172264	0.161989	0.746023	1.9195
0.14	0.0544926	-0.227547	0.158531	0.27695	0.954834	-0.160665	0.232536	0.28979	-0.197489	0.220119	-0.0410133	-0.178319	0.00824564	0.167181	-0.401043	-0.00552001	1.14863	-0.142793	-0.129123	0.0183217	-0.103907	0.197029	-0.0222451	0.0380031	-0.226557	0.0477579	0.469291	1.4961	0.299455	-0.169754	0.170958	0.717865	1.92171
0.15	0.0516975	-0.228464	0.156326	0.287111	0.955845	-0.159981	0.222358	0.292875	-0.199151	0.219541	-0.0248578	-0.165027	0.00824871	0.207474	-0.398551	0.014151	1.18784	-0.132489	-0.142259	0.0183874	-0.102986	0.196901	-0.0127999	0.0453011	-0.230508	0.0678516	0.467384	1.50629	0.287625	-0.167242	0.178483	0.687845	1.92222
0.16	0.0497252	-0.228042	0.154134	0.297204	0.956971	-0.159377	0.20996	0.295025	-0.199376	0.21707	-0.00958068	-0.15189	0.00825178	0.245014	-0.393579	0.0314371	1.22102	-0.11977	-0.15634	0.0184532	-0.103057	0.195458	-0.00366052	0.0532282	-0.234314	0.088896	0.465672	1.51539	0.275334	-0.164721	0.184254	0.656171	1.92114
0.17	0.0483888	-0.226273	0.151776	0.307243	0.958202	-0.158834	0.195595	0.296194	-0.197997	0.212839	0.004864	-0.139058	0.00825487	0.279726	-0.386337	0.0460177	1.24799	-0.106598	-0.17133	0.018519	-0.103926	0.192648	0.00527287	0.0616603	-0.237809	0.110176	0.464239	1.52303	0.262472	-0.162194	0.188018	0.623117	1.91861
0.18	0.0474963	-0.223193	0.149067	0.31724	0.959519	-0.158334	0.179556	0.296354	-0.194964	0.207003	0.0185292	-0.126558	0.00825795	0.311617	-0.377092	0.0576833	1.26871	-0.0943293	-0.186791	0.0185848	-0.105395	0.188475	0.0141325	0.0704344	-0.240849	0.130864	0.463245	1.52911	0.248953	-0.159681	0.189601	0.589021	1.91484
0.19	0.0468673	-0.218894	0.145833	0.327204	0.960904	-0.157862	0.162162	0.295501	-0.190356	0.199747	0.0314554	-0.114319	0.00826105	0.340764	-0.366169	0.066354	1.28323	-0.0836571	-0.201971	0.0186507	-0.107271	0.183012	0.0230647	0.0793622	-0.243329	0.15009	0.462897	1.53385	0.234717	-0.15721	0.188917	0.554267	1.90999
0.2	0.0463446	-0.213523	0.141931	0.337141	0.962339	-0.157412	0.143748	0.29367	-0.184373	0.191292	0.0436605	-0.102205	0.00826414	0.3673	-0.35393	0.0720841	1.2917	-0.0746898	-0.215953	0.0187167	-0.109378	0.176407	0.0322114	0.0882479	-0.245185	0.167033	0.463423	1.53766	0.219731	-0.154817	0.185968	0.519271	1.90428
0.21	0.0458035	-0.207277	0.137262	0.347054	0.963789	-0.156978	0.124652	0.290935	-0.177303	0.181899	0.0551422	-0.0900563	0.00826724	0.391391	-0.340767	0.0750488	1.2943	-0.0671306	-0.227824	0.0187828	-0.111563	0.168871	0.0416935	0.0969072	-0.246401	0.181003	0.465032	1.54107	0.203987	-0.152541	0.180832	0.484457	1.89786
